<svg xmlns="http://www.w3.org/2000/svg" width="1200" height="600" viewBox="0 0 1200 600">
  <defs>
    <filter id="noise">
      <feTurbulence type="fractalNoise" baseFrequency="0.65" numOctaves="3" stitchTiles="stitch" result="noise"/>
      <feColorMatrix type="saturate" values="0" in="noise" result="grayNoise"/>
      <feBlend in="SourceGraphic" in2="grayNoise" mode="multiply" result="blended"/>
      <feComposite in="blended" in2="SourceGraphic" operator="in"/>
    </filter>
    <linearGradient id="bgGrad" x1="0%" y1="0%" x2="100%" y2="100%">
      <stop offset="0%" style="stop-color:#0a0f1e;stop-opacity:1" />
      <stop offset="50%" style="stop-color:#0d1520;stop-opacity:1" />
      <stop offset="100%" style="stop-color:#060c14;stop-opacity:1" />
    </linearGradient>
    <pattern id="grid" width="60" height="60" patternUnits="userSpaceOnUse">
      <path d="M 60 0 L 0 0 0 60" fill="none" stroke="rgba(30,45,79,0.6)" stroke-width="0.5"/>
    </pattern>
    <pattern id="smallGrid" width="12" height="12" patternUnits="userSpaceOnUse">
      <path d="M 12 0 L 0 0 0 12" fill="none" stroke="rgba(14,165,233,0.06)" stroke-width="0.3"/>
    </pattern>
  </defs>
  <!-- Base dark background -->
  <rect width="1200" height="600" fill="url(#bgGrad)"/>
  <!-- Fine grid overlay -->
  <rect width="1200" height="600" fill="url(#smallGrid)"/>
  <!-- Coarse engineering grid -->
  <rect width="1200" height="600" fill="url(#grid)"/>

  <!-- Industrial structural elements — horizontal rails -->
  <rect x="0" y="148" width="1200" height="3" fill="rgba(30,45,79,0.5)"/>
  <rect x="0" y="149" width="1200" height="1" fill="rgba(14,165,233,0.08)"/>
  <rect x="0" y="298" width="1200" height="3" fill="rgba(30,45,79,0.5)"/>
  <rect x="0" y="299" width="1200" height="1" fill="rgba(14,165,233,0.08)"/>
  <rect x="0" y="448" width="1200" height="3" fill="rgba(30,45,79,0.5)"/>
  <rect x="0" y="449" width="1200" height="1" fill="rgba(14,165,233,0.08)"/>

  <!-- Industrial structural elements — vertical columns -->
  <rect x="198" y="0" width="3" height="600" fill="rgba(30,45,79,0.5)"/>
  <rect x="199" y="0" width="1" height="600" fill="rgba(14,165,233,0.06)"/>
  <rect x="598" y="0" width="3" height="600" fill="rgba(30,45,79,0.5)"/>
  <rect x="599" y="0" width="1" height="600" fill="rgba(14,165,233,0.06)"/>
  <rect x="998" y="0" width="3" height="600" fill="rgba(30,45,79,0.5)"/>
  <rect x="999" y="0" width="1" height="600" fill="rgba(14,165,233,0.06)"/>

  <!-- Control panel / PLC shapes — left cluster -->
  <rect x="30" y="80" width="140" height="90" rx="4" fill="none" stroke="rgba(30,45,79,0.7)" stroke-width="1.5"/>
  <rect x="40" y="90" width="50" height="30" rx="2" fill="rgba(14,165,233,0.04)" stroke="rgba(14,165,233,0.12)" stroke-width="0.8"/>
  <rect x="100" y="90" width="60" height="30" rx="2" fill="rgba(14,165,233,0.04)" stroke="rgba(30,45,79,0.5)" stroke-width="0.8"/>
  <rect x="40" y="130" width="120" height="8" rx="1" fill="rgba(30,45,79,0.5)"/>
  <circle cx="55" cy="150" r="5" fill="none" stroke="rgba(14,165,233,0.15)" stroke-width="1"/>
  <circle cx="75" cy="150" r="5" fill="none" stroke="rgba(14,165,233,0.15)" stroke-width="1"/>
  <circle cx="95" cy="150" r="5" fill="none" stroke="rgba(14,165,233,0.08)" stroke-width="1"/>
  <circle cx="115" cy="150" r="5" fill="none" stroke="rgba(30,45,79,0.6)" stroke-width="1"/>
  <circle cx="135" cy="150" r="5" fill="none" stroke="rgba(30,45,79,0.6)" stroke-width="1"/>
  <circle cx="155" cy="150" r="5" fill="none" stroke="rgba(30,45,79,0.6)" stroke-width="1"/>

  <!-- Control panel / PLC shapes — right cluster -->
  <rect x="1030" y="80" width="140" height="90" rx="4" fill="none" stroke="rgba(30,45,79,0.7)" stroke-width="1.5"/>
  <rect x="1040" y="90" width="50" height="30" rx="2" fill="rgba(14,165,233,0.04)" stroke="rgba(14,165,233,0.12)" stroke-width="0.8"/>
  <rect x="1100" y="90" width="60" height="30" rx="2" fill="rgba(14,165,233,0.04)" stroke="rgba(30,45,79,0.5)" stroke-width="0.8"/>
  <rect x="1040" y="130" width="120" height="8" rx="1" fill="rgba(30,45,79,0.5)"/>

  <!-- Conveyor / machine outline — bottom area -->
  <rect x="0" y="500" width="320" height="60" rx="0" fill="rgba(10,15,30,0.6)" stroke="rgba(30,45,79,0.5)" stroke-width="1"/>
  <rect x="20" y="510" width="80" height="40" rx="2" fill="none" stroke="rgba(30,45,79,0.6)" stroke-width="1"/>
  <rect x="120" y="510" width="80" height="40" rx="2" fill="none" stroke="rgba(30,45,79,0.6)" stroke-width="1"/>
  <rect x="220" y="510" width="80" height="40" rx="2" fill="none" stroke="rgba(30,45,79,0.4)" stroke-width="1"/>
  <circle cx="60" cy="530" r="12" fill="none" stroke="rgba(14,165,233,0.1)" stroke-width="1.5"/>
  <circle cx="60" cy="530" r="6" fill="none" stroke="rgba(30,45,79,0.6)" stroke-width="1"/>
  <circle cx="160" cy="530" r="12" fill="none" stroke="rgba(14,165,233,0.1)" stroke-width="1.5"/>
  <circle cx="160" cy="530" r="6" fill="none" stroke="rgba(30,45,79,0.6)" stroke-width="1"/>

  <!-- Conveyor right side -->
  <rect x="880" y="500" width="320" height="60" rx="0" fill="rgba(10,15,30,0.6)" stroke="rgba(30,45,79,0.5)" stroke-width="1"/>
  <circle cx="940" cy="530" r="12" fill="none" stroke="rgba(14,165,233,0.1)" stroke-width="1.5"/>
  <circle cx="940" cy="530" r="6" fill="none" stroke="rgba(30,45,79,0.6)" stroke-width="1"/>
  <circle cx="1040" cy="530" r="12" fill="none" stroke="rgba(14,165,233,0.1)" stroke-width="1.5"/>
  <circle cx="1040" cy="530" r="6" fill="none" stroke="rgba(30,45,79,0.6)" stroke-width="1"/>
  <circle cx="1140" cy="530" r="12" fill="none" stroke="rgba(14,165,233,0.1)" stroke-width="1.5"/>
  <circle cx="1140" cy="530" r="6" fill="none" stroke="rgba(30,45,79,0.6)" stroke-width="1"/>

  <!-- Diagonal accent lines (industrial hazard / grating effect) -->
  <line x1="340" y1="500" x2="380" y2="600" stroke="rgba(30,45,79,0.25)" stroke-width="1"/>
  <line x1="360" y1="500" x2="400" y2="600" stroke="rgba(30,45,79,0.25)" stroke-width="1"/>
  <line x1="380" y1="500" x2="420" y2="600" stroke="rgba(30,45,79,0.25)" stroke-width="1"/>
  <line x1="400" y1="500" x2="440" y2="600" stroke="rgba(30,45,79,0.25)" stroke-width="1"/>
  <line x1="420" y1="500" x2="460" y2="600" stroke="rgba(30,45,79,0.25)" stroke-width="1"/>
  <line x1="440" y1="500" x2="480" y2="600" stroke="rgba(30,45,79,0.25)" stroke-width="1"/>
  <line x1="460" y1="500" x2="500" y2="600" stroke="rgba(30,45,79,0.25)" stroke-width="1"/>
  <line x1="480" y1="500" x2="520" y2="600" stroke="rgba(30,45,79,0.25)" stroke-width="1"/>
  <line x1="500" y1="500" x2="540" y2="600" stroke="rgba(30,45,79,0.25)" stroke-width="1"/>
  <line x1="520" y1="500" x2="560" y2="600" stroke="rgba(30,45,79,0.25)" stroke-width="1"/>
  <line x1="540" y1="500" x2="580" y2="600" stroke="rgba(30,45,79,0.25)" stroke-width="1"/>
  <line x1="560" y1="500" x2="600" y2="600" stroke="rgba(30,45,79,0.25)" stroke-width="1"/>
  <line x1="580" y1="500" x2="620" y2="600" stroke="rgba(30,45,79,0.25)" stroke-width="1"/>
  <line x1="600" y1="500" x2="640" y2="600" stroke="rgba(30,45,79,0.25)" stroke-width="1"/>
  <line x1="620" y1="500" x2="660" y2="600" stroke="rgba(30,45,79,0.25)" stroke-width="1"/>
  <line x1="640" y1="500" x2="680" y2="600" stroke="rgba(30,45,79,0.25)" stroke-width="1"/>
  <line x1="660" y1="500" x2="700" y2="600" stroke="rgba(30,45,79,0.25)" stroke-width="1"/>
  <line x1="680" y1="500" x2="720" y2="600" stroke="rgba(30,45,79,0.25)" stroke-width="1"/>
  <line x1="700" y1="500" x2="740" y2="600" stroke="rgba(30,45,79,0.25)" stroke-width="1"/>
  <line x1="720" y1="500" x2="760" y2="600" stroke="rgba(30,45,79,0.25)" stroke-width="1"/>
  <line x1="740" y1="500" x2="780" y2="600" stroke="rgba(30,45,79,0.25)" stroke-width="1"/>
  <line x1="760" y1="500" x2="800" y2="600" stroke="rgba(30,45,79,0.25)" stroke-width="1"/>
  <line x1="780" y1="500" x2="820" y2="600" stroke="rgba(30,45,79,0.25)" stroke-width="1"/>
  <line x1="800" y1="500" x2="840" y2="600" stroke="rgba(30,45,79,0.25)" stroke-width="1"/>
  <line x1="820" y1="500" x2="860" y2="600" stroke="rgba(30,45,79,0.25)" stroke-width="1"/>
  <line x1="840" y1="500" x2="880" y2="600" stroke="rgba(30,45,79,0.25)" stroke-width="1"/>

  <!-- Circuit traces on upper portion -->
  <path d="M 230 40 L 380 40 L 380 100 L 430 100" fill="none" stroke="rgba(14,165,233,0.1)" stroke-width="1"/>
  <path d="M 230 60 L 350 60 L 350 120 L 430 120" fill="none" stroke="rgba(14,165,233,0.07)" stroke-width="1"/>
  <path d="M 770 40 L 820 40 L 820 100 L 970 100" fill="none" stroke="rgba(14,165,233,0.1)" stroke-width="1"/>
  <path d="M 770 60 L 850 60 L 850 120 L 970 120" fill="none" stroke="rgba(14,165,233,0.07)" stroke-width="1"/>
  <!-- Via dots -->
  <circle cx="380" cy="40" r="2" fill="rgba(14,165,233,0.15)"/>
  <circle cx="350" cy="60" r="2" fill="rgba(14,165,233,0.1)"/>
  <circle cx="820" cy="40" r="2" fill="rgba(14,165,233,0.15)"/>
  <circle cx="850" cy="60" r="2" fill="rgba(14,165,233,0.1)"/>
</svg>
